<?xml version="1.0"?>
<!-- Created by MetaPost 1.999 on 2017.02.25:1952 -->
<svg version="1.1" xmlns="http://www.w3.org/2000/svg" xmlns:xlink="http://www.w3.org/1999/xlink" width="303.439804" height="146.992523" viewBox="0 0 303.439804 146.992523">
<!-- Original BoundingBox: -73.496262 -73.496262 229.943542 73.496262 -->
  <defs>
    <g transform="scale(0.009963,0.009963)" id="GLYPHcmmi10_18">
      <path style="fill-rule: evenodd;" d="M455.000000 -500.000000C455.000000 -566.000000,437.000000 -705.000000,335.000000 -705.000000C196.000000 -705.000000,42.000000 -423.000000,42.000000 -194.000000C42.000000 -100.000000,71.000000 11.000000,162.000000 11.000000C303.000000 11.000000,455.000000 -276.000000,455.000000 -500.000000M148.000000 -363.000000C165.000000 -427.000000,185.000000 -507.000000,225.000000 -578.000000C252.000000 -627.000000,289.000000 -683.000000,334.000000 -683.000000C383.000000 -683.000000,389.000000 -619.000000,389.000000 -562.000000C389.000000 -513.000000,381.000000 -462.000000,357.000000 -363.000000M348.000000 -331.000000C337.000000 -285.000000,316.000000 -200.000000,278.000000 -128.000000C243.000000 -60.000000,205.000000 -11.000000,162.000000 -11.000000C129.000000 -11.000000,108.000000 -40.000000,108.000000 -133.000000C108.000000 -175.000000,114.000000 -233.000000,140.000000 -331.000000"></path>
    </g>
    <g transform="scale(0.009963,0.009963)" id="GLYPHcmmi10_30">
      <path style="fill-rule: evenodd;" d="M437.000000 -670.000000C437.000000 -672.000000,440.000000 -683.000000,440.000000 -684.000000C440.000000 -685.000000,440.000000 -694.000000,428.000000 -694.000000C418.000000 -694.000000,417.000000 -691.000000,413.000000 -674.000000L355.000000 -443.000000C196.000000 -438.000000,49.000000 -305.000000,49.000000 -169.000000C49.000000 -74.000000,119.000000 5.000000,241.000000 12.000000C233.000000 43.000000,226.000000 75.000000,218.000000 106.000000C206.000000 153.000000,196.000000 191.000000,196.000000 194.000000C196.000000 204.000000,203.000000 205.000000,208.000000 205.000000C213.000000 205.000000,215.000000 204.000000,218.000000 201.000000C220.000000 199.000000,226.000000 175.000000,229.000000 161.000000L267.000000 12.000000C428.000000 7.000000,573.000000 -128.000000,573.000000 -262.000000C573.000000 -341.000000,520.000000 -433.000000,381.000000 -443.000000M246.000000 -10.000000C186.000000 -13.000000,114.000000 -48.000000,114.000000 -148.000000C114.000000 -268.000000,200.000000 -408.000000,349.000000 -421.000000M375.000000 -421.000000C451.000000 -417.000000,508.000000 -371.000000,508.000000 -283.000000C508.000000 -165.000000,422.000000 -22.000000,272.000000 -10.000000"></path>
    </g>
    <g transform="scale(0.009963,0.009963)" id="GLYPHcmmi10_77">
      <path style="fill-rule: evenodd;" d="M926.000000 -606.000000C935.000000 -642.000000,937.000000 -652.000000,1012.000000 -652.000000C1035.000000 -652.000000,1044.000000 -652.000000,1044.000000 -672.000000C1044.000000 -683.000000,1034.000000 -683.000000,1017.000000 -683.000000L885.000000 -683.000000C859.000000 -683.000000,858.000000 -683.000000,846.000000 -664.000000L481.000000 -94.000000L403.000000 -660.000000C400.000000 -683.000000,398.000000 -683.000000,372.000000 -683.000000L235.000000 -683.000000C216.000000 -683.000000,205.000000 -683.000000,205.000000 -664.000000C205.000000 -652.000000,214.000000 -652.000000,234.000000 -652.000000C247.000000 -652.000000,265.000000 -651.000000,277.000000 -650.000000C293.000000 -648.000000,299.000000 -645.000000,299.000000 -634.000000C299.000000 -630.000000,298.000000 -627.000000,295.000000 -615.000000L168.000000 -106.000000C158.000000 -66.000000,141.000000 -34.000000,60.000000 -31.000000C55.000000 -31.000000,42.000000 -30.000000,42.000000 -12.000000C42.000000 -3.000000,48.000000 -0.000000,56.000000 -0.000000L156.000000 -0.000000L88.000000 -0.000000L123.000000 -3.000000L156.000000 -3.000000L190.000000 -3.000000L226.000000 -0.000000L259.000000 -0.000000C264.000000 -0.000000,277.000000 -0.000000,277.000000 -20.000000C277.000000 -31.000000,266.000000 -31.000000,259.000000 -31.000000C202.000000 -32.000000,191.000000 -52.000000,191.000000 -75.000000C191.000000 -82.000000,192.000000 -87.000000,195.000000 -98.000000L331.000000 -643.000000L332.000000 -643.000000L418.000000 -23.000000C420.000000 -11.000000,421.000000 -0.000000,433.000000 -0.000000C444.000000 -0.000000,450.000000 -11.000000,455.000000 -18.000000L859.000000 -651.000000L860.000000 -651.000000L717.000000 -78.000000C707.000000 -39.000000,705.000000 -31.000000,626.000000 -31.000000C609.000000 -31.000000,598.000000 -31.000000,598.000000 -12.000000C598.000000 -0.000000,610.000000 -0.000000,613.000000 -0.000000L737.000000 -0.000000L641.000000 -0.000000L709.000000 -3.000000L737.000000 -3.000000L778.000000 -3.000000L821.000000 -0.000000L862.000000 -0.000000C868.000000 -0.000000,881.000000 -0.000000,881.000000 -20.000000C881.000000 -31.000000,872.000000 -31.000000,853.000000 -31.000000C816.000000 -31.000000,788.000000 -31.000000,788.000000 -49.000000C788.000000 -53.000000,788.000000 -55.000000,793.000000 -73.000000"></path>
    </g>
    <g transform="scale(0.009963,0.009963)" id="GLYPHcmmi10_82">
      <path style="fill-rule: evenodd;" d="M375.000000 -614.000000C381.000000 -638.000000,384.000000 -648.000000,403.000000 -651.000000C412.000000 -652.000000,444.000000 -652.000000,464.000000 -652.000000C535.000000 -652.000000,646.000000 -652.000000,646.000000 -553.000000C646.000000 -519.000000,630.000000 -450.000000,591.000000 -411.000000C565.000000 -385.000000,512.000000 -353.000000,422.000000 -353.000000L310.000000 -353.000000M519.000000 -340.000000C620.000000 -362.000000,739.000000 -432.000000,739.000000 -533.000000C739.000000 -619.000000,649.000000 -683.000000,518.000000 -683.000000L233.000000 -683.000000C213.000000 -683.000000,204.000000 -683.000000,204.000000 -663.000000C204.000000 -652.000000,213.000000 -652.000000,232.000000 -652.000000C234.000000 -652.000000,253.000000 -652.000000,270.000000 -650.000000C288.000000 -648.000000,297.000000 -647.000000,297.000000 -634.000000C297.000000 -630.000000,296.000000 -627.000000,293.000000 -615.000000L159.000000 -78.000000C149.000000 -39.000000,147.000000 -31.000000,68.000000 -31.000000C50.000000 -31.000000,41.000000 -31.000000,41.000000 -11.000000C41.000000 -0.000000,53.000000 -0.000000,55.000000 -0.000000L181.000000 -0.000000L83.000000 -0.000000L153.000000 -3.000000L181.000000 -3.000000L209.000000 -3.000000L280.000000 -0.000000L308.000000 -0.000000C316.000000 -0.000000,328.000000 -0.000000,328.000000 -20.000000C328.000000 -31.000000,319.000000 -31.000000,300.000000 -31.000000C263.000000 -31.000000,235.000000 -31.000000,235.000000 -49.000000C235.000000 -55.000000,237.000000 -60.000000,238.000000 -66.000000L304.000000 -331.000000L423.000000 -331.000000C514.000000 -331.000000,532.000000 -275.000000,532.000000 -240.000000C532.000000 -225.000000,524.000000 -194.000000,518.000000 -171.000000C511.000000 -143.000000,502.000000 -106.000000,502.000000 -86.000000C502.000000 22.000000,622.000000 22.000000,635.000000 22.000000C720.000000 22.000000,755.000000 -79.000000,755.000000 -93.000000C755.000000 -105.000000,744.000000 -105.000000,743.000000 -105.000000C734.000000 -105.000000,732.000000 -98.000000,730.000000 -91.000000C705.000000 -17.000000,662.000000 -0.000000,639.000000 -0.000000C606.000000 -0.000000,599.000000 -22.000000,599.000000 -61.000000C599.000000 -92.000000,605.000000 -143.000000,609.000000 -175.000000C611.000000 -189.000000,613.000000 -208.000000,613.000000 -222.000000C613.000000 -299.000000,546.000000 -330.000000,519.000000 -340.000000"></path>
    </g>
    <g transform="scale(0.009963,0.009963)" id="GLYPHcmmi10_100">
      <path style="fill-rule: evenodd;" d="M516.000000 -683.000000C516.000000 -684.000000,516.000000 -694.000000,503.000000 -694.000000C488.000000 -694.000000,393.000000 -685.000000,376.000000 -683.000000C368.000000 -682.000000,362.000000 -677.000000,362.000000 -664.000000C362.000000 -652.000000,371.000000 -652.000000,386.000000 -652.000000C434.000000 -652.000000,436.000000 -645.000000,436.000000 -635.000000L433.000000 -615.000000L373.000000 -378.000000C355.000000 -415.000000,326.000000 -442.000000,281.000000 -442.000000C164.000000 -442.000000,40.000000 -295.000000,40.000000 -149.000000C40.000000 -55.000000,95.000000 11.000000,173.000000 11.000000C193.000000 11.000000,243.000000 7.000000,303.000000 -64.000000C311.000000 -22.000000,346.000000 11.000000,394.000000 11.000000C429.000000 11.000000,452.000000 -12.000000,468.000000 -44.000000C485.000000 -80.000000,498.000000 -141.000000,498.000000 -143.000000C498.000000 -153.000000,489.000000 -153.000000,486.000000 -153.000000C476.000000 -153.000000,475.000000 -149.000000,472.000000 -135.000000C455.000000 -70.000000,437.000000 -11.000000,396.000000 -11.000000C369.000000 -11.000000,366.000000 -37.000000,366.000000 -57.000000C366.000000 -81.000000,368.000000 -88.000000,372.000000 -105.000000M308.000000 -119.000000C303.000000 -101.000000,303.000000 -99.000000,288.000000 -82.000000C244.000000 -27.000000,203.000000 -11.000000,175.000000 -11.000000C125.000000 -11.000000,111.000000 -66.000000,111.000000 -105.000000C111.000000 -155.000000,143.000000 -278.000000,166.000000 -324.000000C197.000000 -383.000000,242.000000 -420.000000,282.000000 -420.000000C347.000000 -420.000000,361.000000 -338.000000,361.000000 -332.000000C361.000000 -326.000000,359.000000 -320.000000,358.000000 -315.000000"></path>
    </g>
    <g transform="scale(0.009963,0.009963)" id="GLYPHcmmi10_109">
      <path style="fill-rule: evenodd;" d="M88.000000 -59.000000C85.000000 -44.000000,79.000000 -21.000000,79.000000 -16.000000C79.000000 2.000000,93.000000 11.000000,108.000000 11.000000C120.000000 11.000000,138.000000 3.000000,145.000000 -17.000000C146.000000 -19.000000,158.000000 -66.000000,164.000000 -91.000000L186.000000 -181.000000C192.000000 -203.000000,198.000000 -225.000000,203.000000 -248.000000C207.000000 -265.000000,215.000000 -294.000000,216.000000 -298.000000C231.000000 -329.000000,284.000000 -420.000000,379.000000 -420.000000C424.000000 -420.000000,433.000000 -383.000000,433.000000 -350.000000C433.000000 -325.000000,426.000000 -297.000000,418.000000 -267.000000L390.000000 -151.000000L370.000000 -75.000000C366.000000 -55.000000,357.000000 -21.000000,357.000000 -16.000000C357.000000 2.000000,371.000000 11.000000,386.000000 11.000000C417.000000 11.000000,423.000000 -14.000000,431.000000 -46.000000C445.000000 -102.000000,482.000000 -248.000000,491.000000 -287.000000C494.000000 -300.000000,547.000000 -420.000000,656.000000 -420.000000C699.000000 -420.000000,710.000000 -386.000000,710.000000 -350.000000C710.000000 -293.000000,668.000000 -179.000000,648.000000 -126.000000C639.000000 -102.000000,635.000000 -91.000000,635.000000 -71.000000C635.000000 -24.000000,670.000000 11.000000,717.000000 11.000000C811.000000 11.000000,848.000000 -135.000000,848.000000 -143.000000C848.000000 -153.000000,839.000000 -153.000000,836.000000 -153.000000C826.000000 -153.000000,826.000000 -150.000000,821.000000 -135.000000C806.000000 -82.000000,774.000000 -11.000000,719.000000 -11.000000C702.000000 -11.000000,695.000000 -21.000000,695.000000 -44.000000C695.000000 -69.000000,704.000000 -93.000000,713.000000 -115.000000C732.000000 -167.000000,774.000000 -278.000000,774.000000 -335.000000C774.000000 -400.000000,734.000000 -442.000000,659.000000 -442.000000C584.000000 -442.000000,533.000000 -398.000000,496.000000 -345.000000C495.000000 -358.000000,492.000000 -392.000000,464.000000 -416.000000C439.000000 -437.000000,407.000000 -442.000000,382.000000 -442.000000C292.000000 -442.000000,243.000000 -378.000000,226.000000 -355.000000C221.000000 -412.000000,179.000000 -442.000000,134.000000 -442.000000C88.000000 -442.000000,69.000000 -403.000000,60.000000 -385.000000C42.000000 -350.000000,29.000000 -291.000000,29.000000 -288.000000C29.000000 -278.000000,39.000000 -278.000000,41.000000 -278.000000C51.000000 -278.000000,52.000000 -279.000000,58.000000 -301.000000C75.000000 -372.000000,95.000000 -420.000000,131.000000 -420.000000C147.000000 -420.000000,162.000000 -412.000000,162.000000 -374.000000C162.000000 -353.000000,159.000000 -342.000000,146.000000 -290.000000"></path>
    </g>
    <g transform="scale(0.009963,0.009963)" id="GLYPHcmmi10_114">
      <path style="fill-rule: evenodd;" d="M88.000000 -59.000000C85.000000 -44.000000,79.000000 -21.000000,79.000000 -16.000000C79.000000 2.000000,93.000000 11.000000,108.000000 11.000000C120.000000 11.000000,138.000000 3.000000,145.000000 -17.000000C147.000000 -21.000000,181.000000 -157.000000,185.000000 -175.000000C193.000000 -208.000000,211.000000 -278.000000,217.000000 -305.000000C221.000000 -318.000000,249.000000 -365.000000,273.000000 -387.000000C281.000000 -394.000000,310.000000 -420.000000,353.000000 -420.000000C379.000000 -420.000000,394.000000 -408.000000,395.000000 -408.000000C365.000000 -403.000000,343.000000 -379.000000,343.000000 -353.000000C343.000000 -337.000000,354.000000 -318.000000,381.000000 -318.000000C408.000000 -318.000000,436.000000 -341.000000,436.000000 -377.000000C436.000000 -412.000000,404.000000 -442.000000,353.000000 -442.000000C288.000000 -442.000000,244.000000 -393.000000,225.000000 -365.000000C217.000000 -410.000000,181.000000 -442.000000,134.000000 -442.000000C88.000000 -442.000000,69.000000 -403.000000,60.000000 -385.000000C42.000000 -351.000000,29.000000 -291.000000,29.000000 -288.000000C29.000000 -278.000000,39.000000 -278.000000,41.000000 -278.000000C51.000000 -278.000000,52.000000 -279.000000,58.000000 -301.000000C75.000000 -372.000000,95.000000 -420.000000,131.000000 -420.000000C148.000000 -420.000000,162.000000 -412.000000,162.000000 -374.000000C162.000000 -353.000000,159.000000 -342.000000,146.000000 -290.000000"></path>
    </g>
    <g transform="scale(0.009963,0.009963)" id="GLYPHcmmi10_115">
      <path style="fill-rule: evenodd;" d="M391.000000 -374.000000C363.000000 -373.000000,343.000000 -351.000000,343.000000 -329.000000C343.000000 -315.000000,352.000000 -300.000000,374.000000 -300.000000C396.000000 -300.000000,420.000000 -317.000000,420.000000 -356.000000C420.000000 -401.000000,377.000000 -442.000000,301.000000 -442.000000C169.000000 -442.000000,132.000000 -340.000000,132.000000 -296.000000C132.000000 -218.000000,206.000000 -203.000000,235.000000 -197.000000C287.000000 -187.000000,339.000000 -176.000000,339.000000 -121.000000C339.000000 -95.000000,316.000000 -11.000000,196.000000 -11.000000C182.000000 -11.000000,105.000000 -11.000000,82.000000 -64.000000C120.000000 -59.000000,145.000000 -89.000000,145.000000 -117.000000C145.000000 -140.000000,129.000000 -152.000000,108.000000 -152.000000C82.000000 -152.000000,52.000000 -131.000000,52.000000 -86.000000C52.000000 -29.000000,109.000000 11.000000,195.000000 11.000000C357.000000 11.000000,396.000000 -110.000000,396.000000 -155.000000C396.000000 -191.000000,377.000000 -216.000000,365.000000 -228.000000C338.000000 -256.000000,309.000000 -261.000000,265.000000 -270.000000C229.000000 -278.000000,189.000000 -285.000000,189.000000 -330.000000C189.000000 -359.000000,213.000000 -420.000000,301.000000 -420.000000C326.000000 -420.000000,376.000000 -413.000000,391.000000 -374.000000"></path>
    </g>
  </defs>
  <path d="M103.428467 7.746643C109.087326 10.385620,114.410538 13.763992,119.249115 17.819885L119.249115 17.820068L119.249115 128.180710C119.249115 128.183090,119.250381 128.179047,119.249100 128.180115C114.410629 132.235916,109.087540 135.614243,103.428818 138.253204L103.428818 138.252151L103.428818 7.747803C103.428818 7.747375,103.427475 7.746170,103.428467 7.746643Z" style="fill: rgb(69.999695%,69.999695%,100.000000%);stroke: none;"></path>
  <path d="M103.428467 7.746643C109.087326 10.385620,114.410538 13.763992,119.249115 17.819885L119.249115 17.820068L119.249115 128.180710C119.249115 128.183090,119.250381 128.179047,119.249100 128.180115C114.410629 132.235916,109.087540 135.614243,103.428818 138.253204L103.428818 138.252151L103.428818 7.747803C103.428818 7.747375,103.427475 7.746170,103.428467 7.746643Z" style="stroke:rgb(0.000000%,0.000000%,0.000000%); stroke-width: 0.250000;stroke-linecap: round;stroke-linejoin: round;stroke-miterlimit: 10.000000;fill: none;"></path>
  <g transform="translate(85.249710 109.085831)" style="fill: rgb(0.000000%,0.000000%,0.000000%);">
    <use xlink:href="#GLYPHcmmi10_100"></use>
    <use xlink:href="#GLYPHcmmi10_77" x="5.204950"></use>
  </g>
  <path d="M75.500000 73.000000C75.500000 72.336929,75.236557 71.701096,74.767731 71.232269C74.298904 70.763443,73.663071 70.500000,73.000000 70.500000C72.336929 70.500000,71.701096 70.763443,71.232269 71.232269C70.763443 71.701096,70.500000 72.336929,70.500000 73.000000C70.500000 73.663071,70.763443 74.298904,71.232269 74.767731C71.701096 75.236557,72.336929 75.500000,73.000000 75.500000C73.663071 75.500000,74.298904 75.236557,74.767731 74.767731C75.236557 74.298904,75.500000 73.663071,75.500000 73.000000Z" style="fill: rgb(0.000000%,0.000000%,0.000000%);stroke: none;"></path>
  <path d="M291.500000 73.000000C291.500000 72.336929,291.236557 71.701096,290.767731 71.232269C290.298904 70.763443,289.663071 70.500000,289.000000 70.500000C288.336929 70.500000,287.701096 70.763443,287.232269 71.232269C286.763443 71.701096,286.500000 72.336929,286.500000 73.000000C286.500000 73.663071,286.763443 74.298904,287.232269 74.767731C287.701096 75.236557,288.336929 75.500000,289.000000 75.500000C289.663071 75.500000,290.298904 75.236557,290.767731 74.767731C291.236557 74.298904,291.500000 73.663071,291.500000 73.000000Z" style="fill: rgb(0.000000%,0.000000%,0.000000%);stroke: none;"></path>
  <g transform="translate(293.199982 81.489487)" style="fill: rgb(0.000000%,0.000000%,0.000000%);">
    <use xlink:href="#GLYPHcmmi10_109"></use>
  </g>
  <path d="M73.000000 73.000000L119.249115 17.819885" style="stroke:rgb(0.000000%,0.000000%,0.000000%); stroke-width: 0.500000;stroke-linecap: round;stroke-linejoin: round;stroke-miterlimit: 10.000000;fill: none;"></path>
  <g transform="translate(178.614243 79.531113)" style="fill: rgb(0.000000%,0.000000%,0.000000%);">
    <use xlink:href="#GLYPHcmmi10_114"></use>
  </g>
  <path d="M73.000000 73.000000L289.000000 73.000000" style="stroke:rgb(0.000000%,0.000000%,0.000000%); stroke-width: 0.500000;stroke-linecap: round;stroke-linejoin: round;stroke-miterlimit: 10.000000;fill: none;"></path>
  <g transform="translate(203.618179 43.168350)" style="fill: rgb(0.000000%,0.000000%,0.000000%);">
    <use xlink:href="#GLYPHcmmi10_115"></use>
  </g>
  <path d="M289.000000 73.000000L119.249115 17.819885" style="stroke:rgb(0.000000%,0.000000%,0.000000%); stroke-width: 0.500000;stroke-linecap: round;stroke-linejoin: round;stroke-miterlimit: 10.000000;fill: none;"></path>
  <g transform="translate(78.331314 40.639114)" style="fill: rgb(0.000000%,0.000000%,0.000000%);">
    <use xlink:href="#GLYPHcmmi10_82"></use>
  </g>
  <path d="M73.000000 73.000000L103.428818 7.746796" style="stroke:rgb(0.000000%,0.000000%,0.000000%); stroke-width: 0.500000;stroke-linecap: round;stroke-linejoin: round;stroke-miterlimit: 10.000000;fill: none;"></path>
  <g transform="translate(227.487885 65.713287)" style="fill: rgb(0.000000%,0.000000%,0.000000%);">
    <use xlink:href="#GLYPHcmmi10_30"></use>
  </g>
  <path d="M235.000000 73.000000C235.000000 67.331055,235.893188 61.697540,237.644958 56.306274" style="stroke:rgb(0.000000%,0.000000%,0.000000%); stroke-width: 0.250000;stroke-linecap: round;stroke-linejoin: round;stroke-miterlimit: 10.000000;fill: none;"></path>
  <g transform="translate(91.552994 65.676331)" style="fill: rgb(0.000000%,0.000000%,0.000000%);">
    <use xlink:href="#GLYPHcmmi10_18"></use>
  </g>
  <path d="M91.000000 73.000000C91.000000 67.675751,88.642883 62.624786,84.562561 59.204742" style="stroke:rgb(0.000000%,0.000000%,0.000000%); stroke-width: 0.250000;stroke-linecap: round;stroke-linejoin: round;stroke-miterlimit: 10.000000;fill: none;"></path>
  <g transform="translate(111.885147 10.023239)" style="fill: rgb(0.000000%,0.000000%,0.000000%);">
    <use xlink:href="#GLYPHcmmi10_100"></use>
    <use xlink:href="#GLYPHcmmi10_18" x="5.204950"></use>
  </g>
  <path d="M119.250244 17.818970C114.438232 13.785889,109.118652 10.398804,103.428833 7.745605" style="stroke:rgb(0.000000%,0.000000%,0.000000%); stroke-width: 0.250000;stroke-linecap: round;stroke-linejoin: round;stroke-miterlimit: 10.000000;fill: none;"></path>
  <path d="M145.000000 73.000000C145.000000 53.903564,137.412842 35.591553,123.910645 22.089355C110.408447 8.587158,92.096436 1.000000,73.000000 1.000000C53.903564 1.000000,35.591553 8.587158,22.089355 22.089355C8.587158 35.591553,1.000000 53.903564,1.000000 73.000000C1.000000 92.096436,8.587158 110.408447,22.089355 123.910645C35.591553 137.412842,53.903564 145.000000,73.000000 145.000000C92.096436 145.000000,110.408447 137.412842,123.910645 123.910645C137.412842 110.408447,145.000000 92.096436,145.000000 73.000000Z" style="stroke:rgb(0.000000%,0.000000%,0.000000%); stroke-width: 1.000000;stroke-linecap: round;stroke-linejoin: round;stroke-miterlimit: 10.000000;fill: none;"></path>
</svg>
